<?xml version="1.0" encoding="utf-8" standalone="no"?>
<!DOCTYPE svg PUBLIC "-//W3C//DTD SVG 1.1//EN"
  "http://www.w3.org/Graphics/SVG/1.1/DTD/svg11.dtd">
<!-- Created with matplotlib (http://matplotlib.org/) -->
<svg height="442pt" version="1.1" viewBox="0 0 586 442" width="586pt" xmlns="http://www.w3.org/2000/svg" xmlns:xlink="http://www.w3.org/1999/xlink">
 <defs>
  <style type="text/css">
*{stroke-linecap:butt;stroke-linejoin:round;}
  </style>
 </defs>
 <g id="figure_1">
  <g id="patch_1">
   <path d="
M0 442.8
L586.8 442.8
L586.8 0
L0 0
z
" style="fill:#ffffff;"/>
  </g>
  <g id="axes_1">
   <g id="patch_2">
    <path d="
M73.35 398.52
L528.12 398.52
L528.12 44.28
L73.35 44.28
z
" style="fill:#ffffff;"/>
   </g>
   <g id="line2d_1">
    <path clip-path="url(#p9061672a36)" d="
M73.35 356.208
L74.4869 348.336
L74.8659 357.979
L75.2449 363.096
L75.6239 366.442
L76.0028 364.67
L76.3818 363.883
L76.7608 364.867
L77.1398 363.49
L77.5187 363.49
L77.8977 363.293
L78.2767 363.49
L78.6557 365.458
L79.0346 362.899
L79.4136 361.915
L80.5505 357.979
L80.9295 359.16
L81.3085 359.75
L81.6875 343.81
L82.0664 349.32
L82.4454 349.91
L82.8244 348.139
L83.2034 341.448
L83.5823 342.826
L83.9613 346.368
L84.3403 331.608
L85.0982 338.89
L85.4772 335.938
L86.2352 336.331
L86.9931 340.661
L87.3721 338.693
L88.13 344.99
L88.509 343.219
L88.888 344.006
L89.267 347.549
L89.6459 349.32
L90.0249 348.926
L90.4039 349.32
L90.7829 341.448
L91.1618 339.283
L91.5408 341.054
L91.9198 341.842
L92.6777 339.677
L93.0567 338.89
L93.8147 344.794
L94.1936 345.384
L94.5726 344.4
L94.9516 348.533
L95.3306 343.613
L95.7095 340.661
L96.0885 336.134
L96.8465 319.406
L97.2254 321.965
L97.6044 311.534
L97.9834 311.731
L98.3624 327.475
L98.7413 323.933
L99.1203 323.933
L99.4993 315.47
L99.8783 322.555
L100.257 311.338
L100.636 313.896
L101.015 313.896
L101.394 323.539
L101.773 310.157
L102.531 310.55
L102.91 313.896
L103.289 310.944
L103.668 301.104
L104.047 298.152
L104.426 299.53
L104.805 303.859
L105.184 304.45
L105.563 302.285
L105.942 289.099
L106.321 291.658
L106.7 281.621
L107.079 280.243
L107.458 269.419
L107.837 252.494
L108.216 258.398
L108.974 243.638
L109.353 247.574
L109.732 235.57
L110.869 215.299
L111.248 226.517
L111.626 261.154
L112.005 261.35
L112.384 263.909
L112.763 264.696
L113.142 271.387
L113.521 288.509
L113.9 276.701
L114.279 284.573
L114.658 280.637
L115.037 282.605
L115.416 290.87
L115.795 288.706
L116.174 285.36
L116.553 283.589
L116.932 282.408
L117.311 280.046
L117.69 286.541
L118.069 286.541
L118.448 287.722
L118.827 282.211
L119.206 294.216
L119.585 295.2
L119.964 303.859
L120.343 295.397
L121.101 316.061
L121.48 303.859
L122.238 295.003
L123.375 272.962
L123.754 277.291
L124.133 270.994
L124.512 269.026
L125.27 262.531
L125.649 259.579
L126.028 258.595
L126.407 264.106
L126.785 257.611
L127.164 248.558
L127.543 252.298
L127.922 258.005
L128.301 260.957
L128.68 268.829
L129.059 267.058
L129.817 257.611
L130.196 256.234
L130.575 269.222
L131.712 260.957
L132.47 250.723
L132.849 249.936
L133.228 246
L133.607 253.085
L133.986 251.707
L134.365 249.739
L134.744 258.202
L135.123 259.973
L135.502 259.579
L135.881 257.414
L136.26 254.462
L137.018 255.643
L137.397 261.941
L138.155 266.664
L138.534 263.122
L139.292 266.664
L139.671 265.483
L140.05 264.893
L140.429 264.696
L140.808 263.909
L141.187 259.776
L141.566 260.17
L141.944 261.35
L142.323 264.696
L142.702 273.158
L143.081 269.026
L143.46 259.382
L143.839 260.76
L144.218 264.499
L144.597 255.84
L144.976 251.51
L145.355 259.973
L145.734 260.76
L146.113 259.973
L146.492 268.435
L146.871 271.781
L147.25 272.174
L147.629 275.914
L148.008 274.93
L148.387 285.36
L148.766 289.886
L149.145 301.498
L149.524 300.317
L149.903 311.141
L150.282 299.333
L150.661 299.136
L151.04 295.987
L151.419 290.28
L151.798 290.477
L152.556 276.504
L152.935 283.195
L153.314 281.227
L153.693 275.914
L154.072 276.898
L154.451 280.834
L154.83 279.062
L155.209 277.882
L155.588 273.946
L155.967 274.536
L156.346 280.834
L156.725 284.179
L157.103 282.014
L157.861 270.6
L158.24 264.696
L158.619 266.074
L158.998 269.419
L159.377 267.451
L159.756 268.238
L160.135 270.403
L160.514 273.946
L160.893 274.733
L161.272 279.653
L161.651 281.227
L162.03 276.504
L162.409 279.062
L162.788 273.749
L163.167 273.552
L163.546 274.142
L163.925 275.126
L164.683 268.829
L165.062 270.6
L165.441 265.286
L165.82 264.106
L166.199 264.893
L166.957 271.978
L167.336 272.568
L168.094 256.234
L168.473 251.904
L168.852 239.702
L169.231 247.181
L169.61 247.771
L169.989 240.686
L170.368 246.787
L170.747 250.526
L171.126 266.074
L171.505 273.946
L171.884 275.914
L172.262 270.6
L172.641 269.813
L173.02 275.52
L173.399 273.749
L173.778 279.653
L174.157 282.802
L174.536 277.094
L174.915 276.11
L175.294 275.52
L175.673 273.749
L176.052 274.142
L176.431 276.11
L176.81 273.552
L177.189 273.355
L177.568 280.834
L178.326 285.557
L179.463 295.79
L179.842 291.658
L180.221 289.099
L180.6 281.621
L180.979 283.982
L181.358 279.259
L181.737 279.259
L182.116 284.573
L182.495 282.802
L182.874 285.36
L183.253 290.674
L183.632 293.822
L184.011 291.067
L184.39 294.61
L184.769 291.461
L185.148 292.051
L185.527 294.019
L185.906 291.854
L186.285 293.822
L186.664 292.642
L187.043 293.232
L187.421 293.232
L187.8 293.822
L188.179 292.248
L188.558 292.051
L189.316 285.754
L189.695 289.886
L190.074 288.902
L190.453 288.509
L191.211 290.083
L191.969 293.626
L192.348 292.838
L192.727 292.642
L193.485 291.264
L193.864 291.854
L194.243 294.019
L194.622 297.168
L195.001 297.758
L195.38 296.578
L195.759 288.115
L196.138 293.626
L196.517 292.248
L196.896 294.61
L197.275 299.136
L197.654 287.131
L198.033 282.211
L198.412 283.982
L198.791 284.179
L199.17 287.918
L199.549 286.344
L199.928 288.312
L200.307 291.461
L200.686 291.854
L201.065 289.69
L201.444 290.87
L201.823 295.397
L202.202 292.642
L202.58 287.722
L202.959 285.557
L203.338 286.147
L203.717 289.493
L204.096 285.95
L204.475 285.95
L204.854 275.914
L205.233 277.685
L205.612 277.685
L205.991 279.85
L206.37 271.387
L206.749 274.733
L207.128 267.254
L207.507 267.648
L207.886 267.451
L208.265 267.451
L208.644 268.435
L209.023 268.238
L209.402 267.058
L209.781 260.76
L210.16 257.218
L210.539 259.973
L210.918 258.989
L211.297 260.76
L211.676 251.117
L212.055 257.611
L213.571 263.122
L213.95 261.744
L214.329 261.941
L215.087 254.659
L215.466 258.595
L215.845 258.989
L216.224 256.627
L216.603 256.037
L216.982 258.005
L217.361 255.25
L217.739 257.611
L218.118 260.76
L219.634 264.893
L220.013 263.318
L220.392 256.234
L220.771 255.25
L221.15 253.675
L221.529 253.675
L221.908 241.867
L222.287 241.867
L223.045 245.41
L223.424 243.442
L223.803 242.261
L224.182 235.373
L224.561 234.979
L225.319 242.064
L225.698 241.277
L226.077 236.357
L226.456 240.096
L226.835 245.213
L227.214 240.293
L227.593 242.261
L227.972 237.931
L228.351 238.915
L228.73 226.123
L229.109 225.926
L229.488 220.81
L229.867 219.432
L230.246 217.267
L230.625 218.448
L231.004 217.267
L231.383 216.874
L231.762 207.427
L232.141 205.459
L232.52 215.299
L232.898 217.661
L233.277 214.315
L233.656 220.219
L234.035 223.368
L234.414 224.746
L234.793 224.549
L235.172 220.022
L235.551 222.384
L235.93 223.368
L236.309 221.006
L236.688 217.464
L237.067 219.038
L237.446 217.07
L237.825 216.48
L238.204 220.613
L238.583 223.171
L238.962 218.054
L239.341 220.219
L239.72 219.235
L240.099 212.741
L240.857 220.81
L241.615 226.32
L241.994 220.022
L242.373 219.826
L243.131 203.294
L243.51 210.97
L244.268 217.267
L244.647 213.331
L245.026 208.018
L246.163 164.328
L246.542 174.168
L246.921 172.397
L247.3 174.562
L247.679 185.386
L248.057 191.29
L248.436 190.502
L249.194 182.827
L249.573 182.237
L249.952 177.317
L250.331 162.163
L250.71 165.706
L251.089 172.2
L251.468 181.646
L251.847 176.923
L252.226 170.626
L252.605 148.387
L252.984 137.957
L253.363 148.978
L253.742 151.142
L254.5 160.589
L254.879 189.125
L255.258 185.779
L255.637 181.056
L256.016 168.461
L256.395 175.546
L256.774 174.562
L257.153 179.088
L257.532 175.546
L257.911 180.269
L258.29 182.237
L258.669 180.859
L259.048 171.019
L259.427 171.413
L259.806 165.902
L260.185 158.03
L260.564 158.03
L261.322 153.307
L261.701 157.44
L262.459 177.514
L263.216 195.029
L263.595 189.715
L264.353 198.965
L264.732 199.358
L265.49 202.507
L265.869 206.837
L266.248 197.981
L267.006 188.731
L267.385 195.816
L267.764 206.64
L268.143 205.262
L268.522 216.677
L268.901 205.853
L269.28 200.342
L269.659 211.363
L270.038 210.182
L270.417 219.432
L270.796 215.299
L271.554 191.093
L271.933 186.96
L272.312 187.747
L272.691 190.109
L273.07 188.141
L273.449 204.672
L273.828 207.427
L274.207 208.608
L274.586 210.182
L274.965 214.709
L275.344 209.198
L275.723 206.837
L276.102 202.114
L276.481 194.438
L276.86 202.901
L277.239 202.901
L277.618 200.539
L277.997 193.454
L278.375 194.438
L278.754 202.507
L279.133 193.454
L279.512 195.619
L279.891 192.667
L280.27 193.651
L280.649 195.226
L281.028 195.619
L281.407 194.242
L281.786 188.141
L282.165 178.104
L282.544 178.498
L283.302 184.008
L283.681 176.53
L284.06 173.774
L284.439 173.381
L284.818 166.69
L285.197 168.854
L285.576 174.562
L285.955 173.774
L286.334 167.674
L286.713 170.429
L287.471 169.248
L287.85 175.939
L288.229 173.578
L288.608 170.035
L288.987 174.365
L289.366 162.36
L289.745 162.163
L290.124 159.605
L290.503 161.77
L290.882 169.838
L291.261 166.493
L291.64 170.035
L292.019 170.429
L292.398 176.923
L292.777 169.248
L293.156 169.445
L293.534 172.003
L293.913 169.051
L294.292 173.381
L295.05 167.87
L295.429 168.067
L295.808 172.003
L296.187 174.758
L296.945 162.163
L297.324 156.062
L297.703 152.323
L298.082 137.957
L298.461 134.808
L298.84 140.515
L299.219 129.494
L299.977 135.595
L300.356 135.202
L300.735 134.611
L301.114 130.085
L301.493 122.41
L301.872 118.867
L302.251 119.851
L302.63 118.277
L303.388 96.6288
L303.767 102.139
L304.525 127.133
L304.904 127.33
L305.662 120.835
L306.041 99.384
L306.42 88.3632
L306.799 86.7888
L307.178 87.3792
L307.557 92.496
L307.936 82.0656
L308.315 75.1776
L308.693 82.4592
L309.451 86.592
L309.83 95.2512
L310.209 84.0336
L310.588 93.48
L310.967 83.8368
L311.346 84.4272
L311.725 80.4912
L312.483 71.0448
L313.241 101.746
L313.62 101.746
L313.999 104.501
L314.378 109.814
L315.136 103.123
L315.515 104.304
L315.894 99.1872
L316.273 108.634
L316.652 101.549
L317.031 104.107
L317.41 100.171
L317.789 113.554
L318.547 121.622
L318.926 111.586
L319.305 111.979
L319.684 101.549
L320.063 99.5808
L320.442 111.192
L320.821 117.293
L321.2 115.915
L321.579 117.293
L321.958 132.25
L322.337 135.989
L322.716 153.307
L323.095 137.17
L323.852 119.064
L324.231 128.51
L324.989 120.048
L325.368 125.165
L326.126 145.435
L326.505 137.563
L326.884 139.925
L327.263 137.957
L327.642 136.776
L328.021 146.026
L328.779 128.707
L329.158 141.302
L329.537 135.989
L329.916 132.643
L330.295 131.659
L330.674 127.526
L331.053 133.824
L331.432 135.202
L331.811 142.877
L332.19 142.877
L332.569 148.584
L332.948 128.314
L333.327 124.771
L333.706 130.872
L334.085 131.659
L334.464 121.819
L334.843 122.803
L335.601 135.595
L335.98 132.84
L336.359 138.35
L336.738 139.531
L337.117 149.174
L337.496 146.616
L337.875 142.286
L338.254 141.499
L338.633 139.138
L339.011 142.286
L339.39 138.744
L339.769 138.547
L340.148 138.547
L340.527 141.893
L341.285 153.898
L341.664 175.742
L342.043 170.626
L342.422 181.253
L342.801 188.731
L343.18 184.795
L343.559 196.8
L343.938 187.747
L344.317 200.736
L345.075 192.274
L345.833 170.822
L346.212 185.386
L346.591 180.072
L346.97 169.248
L347.349 168.264
L347.728 173.381
L348.107 182.827
L348.486 197.39
L348.865 204.869
L349.244 199.358
L349.623 192.077
L350.002 188.731
L350.381 197.194
L350.76 198.768
L351.139 205.853
L351.518 201.523
L351.897 194.635
L352.276 196.997
L352.655 191.683
L353.034 193.454
L353.413 199.555
L354.549 209.986
L354.928 202.507
L355.686 206.05
L356.065 205.459
L356.444 205.656
L357.202 210.773
L357.581 197.587
L357.96 191.093
L358.339 180.269
L358.718 179.875
L359.097 190.502
L359.476 191.093
L360.234 202.31
L360.992 212.741
L361.371 196.013
L361.75 188.534
L362.129 196.013
L362.508 191.683
L362.887 182.434
L363.266 186.96
L363.645 184.598
L364.024 183.024
L364.403 190.109
L364.782 195.029
L365.161 186.763
L365.54 175.939
L365.919 178.694
L366.298 172.003
L366.677 162.36
L367.056 160.786
L367.435 174.365
L367.814 174.168
L368.193 195.619
L368.572 201.917
L368.951 211.56
L369.329 227.304
L369.708 221.4
L370.087 223.958
L370.466 213.528
L370.845 217.464
L371.224 216.283
L371.603 225.926
L371.982 230.059
L372.361 228.682
L372.74 225.336
L373.119 220.81
L373.498 213.331
L373.877 215.693
L374.256 222.187
L374.635 223.171
L375.014 227.304
L375.393 227.107
L375.772 218.054
L376.151 220.022
L376.53 209.986
L376.909 204.869
L377.288 196.21
L377.667 204.278
L378.046 196.997
L378.425 186.566
L378.804 180.466
L379.183 180.662
L379.562 177.514
L379.941 193.258
L380.32 196.8
L380.699 196.997
L381.078 197.39
L381.457 201.917
L381.836 200.342
L382.215 195.619
L382.594 193.651
L382.973 196.8
L383.731 207.821
L384.867 198.178
L385.246 202.31
L385.625 198.374
L386.004 202.31
L386.383 204.082
L386.762 202.704
L387.141 207.427
L387.52 202.901
L387.899 205.262
L388.278 206.64
L388.657 213.725
L389.036 215.102
L389.415 218.448
L389.794 219.432
L390.173 221.006
L390.552 198.768
L390.931 201.917
L391.31 207.427
L391.689 210.379
L392.068 210.576
L392.447 210.576
L392.826 209.986
L393.205 207.821
L393.963 213.528
L394.342 210.576
L394.721 215.693
L395.1 217.07
L395.858 209.986
L396.237 208.018
L396.616 207.821
L396.995 207.034
L397.374 202.901
L398.132 214.512
L398.511 211.363
L398.89 214.512
L399.269 213.331
L399.647 208.608
L400.026 201.523
L400.784 207.821
L401.542 194.832
L401.921 194.832
L402.3 187.944
L402.679 184.205
L403.058 182.434
L403.437 167.083
L403.816 166.099
L404.195 159.998
L404.574 165.509
L404.953 163.738
L405.332 164.722
L405.711 170.232
L406.09 164.722
L406.469 166.886
L406.848 166.296
L407.227 170.035
L407.606 157.637
L407.985 162.95
L408.364 174.168
L408.743 170.626
L409.122 168.264
L409.501 167.28
L409.88 172.003
L410.259 167.28
L410.638 164.918
L411.017 155.866
L411.396 155.078
L411.775 161.179
L412.154 157.046
L412.533 150.946
L412.912 160.982
L413.291 161.179
L413.67 159.014
L414.049 148.584
L414.428 150.355
L414.806 145.632
L415.185 150.749
L415.564 144.058
L415.943 148.387
L416.701 164.722
L417.08 166.099
L417.459 169.051
L417.838 182.04
L418.217 177.317
L418.596 179.482
L418.975 178.301
L419.354 161.573
L419.733 160.589
L420.491 150.355
L420.87 149.568
L421.628 156.653
L422.386 147.994
L423.144 127.133
L423.523 127.92
L423.902 130.085
L424.281 124.968
L424.66 135.005
L425.418 126.739
L425.797 115.718
L426.176 113.16
L426.555 114.931
L426.934 118.277
L427.313 110.011
L427.692 119.458
L428.071 122.606
L428.45 111.586
L429.208 132.053
L429.587 133.43
L429.965 137.563
L430.344 135.398
L430.723 121.229
L431.481 139.925
L432.239 152.323
L432.618 147.994
L432.997 152.323
L433.376 153.898
L433.755 145.829
L434.134 141.302
L434.513 142.877
L434.892 143.467
L435.271 144.648
L436.029 138.35
L437.166 142.68
L437.545 140.122
L437.924 128.117
L438.303 129.494
L438.682 141.696
L439.061 145.042
L439.44 146.616
L439.819 149.371
L440.198 148.978
L440.577 133.234
L440.956 131.659
L441.335 128.314
L441.714 129.101
L442.093 136.186
L442.472 130.872
L443.23 117.686
L443.988 120.835
L444.367 129.494
L444.746 125.165
L445.124 128.314
L445.503 127.92
L445.882 124.378
L446.261 125.165
L446.64 124.378
L447.019 128.117
L447.398 138.547
L447.777 138.941
L448.156 137.76
L448.535 141.106
L448.914 139.138
L449.293 138.744
L449.672 133.037
L450.43 130.478
L450.809 130.478
L451.188 129.494
L451.567 130.675
L451.946 125.755
L452.325 131.462
L452.704 134.218
L453.083 134.414
L453.462 130.282
L453.841 133.234
L454.22 126.542
L454.599 131.069
L454.978 132.643
L455.357 147.797
L455.736 143.861
L456.115 151.733
L456.494 146.222
L456.873 146.026
L457.252 152.914
L457.631 154.882
L458.01 154.685
L458.768 145.632
L459.147 149.371
L459.526 147.403
L459.905 151.93
L460.283 154.488
L460.662 150.158
L460.662 150.158" style="fill:none;stroke:#0000ff;stroke-linecap:square;"/>
   </g>
   <g id="matplotlib.axis_1">
    <g id="xtick_1">
     <g id="line2d_2">
      <defs>
       <path d="
M0 0
L0 -4" id="m93b0483c22" style="stroke:#000000;stroke-width:0.5;"/>
      </defs>
      <g>
       <use style="stroke:#000000;stroke-width:0.5;" x="73.35" xlink:href="#m93b0483c22" y="398.52"/>
      </g>
     </g>
     <g id="line2d_3">
      <defs>
       <path d="
M0 0
L0 4" id="m741efc42ff" style="stroke:#000000;stroke-width:0.5;"/>
      </defs>
      <g>
       <use style="stroke:#000000;stroke-width:0.5;" x="73.35" xlink:href="#m741efc42ff" y="44.28"/>
      </g>
     </g>
     <g id="text_1">
      <!-- 0 -->
      <defs>
       <path d="
M31.7812 66.4062
Q24.1719 66.4062 20.3281 58.9062
Q16.5 51.4219 16.5 36.375
Q16.5 21.3906 20.3281 13.8906
Q24.1719 6.39062 31.7812 6.39062
Q39.4531 6.39062 43.2812 13.8906
Q47.125 21.3906 47.125 36.375
Q47.125 51.4219 43.2812 58.9062
Q39.4531 66.4062 31.7812 66.4062
M31.7812 74.2188
Q44.0469 74.2188 50.5156 64.5156
Q56.9844 54.8281 56.9844 36.375
Q56.9844 17.9688 50.5156 8.26562
Q44.0469 -1.42188 31.7812 -1.42188
Q19.5312 -1.42188 13.0625 8.26562
Q6.59375 17.9688 6.59375 36.375
Q6.59375 54.8281 13.0625 64.5156
Q19.5312 74.2188 31.7812 74.2188" id="BitstreamVeraSans-Roman-30"/>
      </defs>
      <g transform="translate(70.3265625 411.638125)scale(0.12 -0.12)">
       <use xlink:href="#BitstreamVeraSans-Roman-30"/>
      </g>
     </g>
    </g>
    <g id="xtick_2">
     <g id="line2d_4">
      <g>
       <use style="stroke:#000000;stroke-width:0.5;" x="149.145" xlink:href="#m93b0483c22" y="398.52"/>
      </g>
     </g>
     <g id="line2d_5">
      <g>
       <use style="stroke:#000000;stroke-width:0.5;" x="149.145" xlink:href="#m741efc42ff" y="44.28"/>
      </g>
     </g>
     <g id="text_2">
      <!-- 200 -->
      <defs>
       <path d="
M19.1875 8.29688
L53.6094 8.29688
L53.6094 0
L7.32812 0
L7.32812 8.29688
Q12.9375 14.1094 22.625 23.8906
Q32.3281 33.6875 34.8125 36.5312
Q39.5469 41.8438 41.4219 45.5312
Q43.3125 49.2188 43.3125 52.7812
Q43.3125 58.5938 39.2344 62.25
Q35.1562 65.9219 28.6094 65.9219
Q23.9688 65.9219 18.8125 64.3125
Q13.6719 62.7031 7.8125 59.4219
L7.8125 69.3906
Q13.7656 71.7812 18.9375 73
Q24.125 74.2188 28.4219 74.2188
Q39.75 74.2188 46.4844 68.5469
Q53.2188 62.8906 53.2188 53.4219
Q53.2188 48.9219 51.5312 44.8906
Q49.8594 40.875 45.4062 35.4062
Q44.1875 33.9844 37.6406 27.2188
Q31.1094 20.4531 19.1875 8.29688" id="BitstreamVeraSans-Roman-32"/>
      </defs>
      <g transform="translate(138.530625 411.638125)scale(0.12 -0.12)">
       <use xlink:href="#BitstreamVeraSans-Roman-32"/>
       <use x="63.623046875" xlink:href="#BitstreamVeraSans-Roman-30"/>
       <use x="127.24609375" xlink:href="#BitstreamVeraSans-Roman-30"/>
      </g>
     </g>
    </g>
    <g id="xtick_3">
     <g id="line2d_6">
      <g>
       <use style="stroke:#000000;stroke-width:0.5;" x="224.94" xlink:href="#m93b0483c22" y="398.52"/>
      </g>
     </g>
     <g id="line2d_7">
      <g>
       <use style="stroke:#000000;stroke-width:0.5;" x="224.94" xlink:href="#m741efc42ff" y="44.28"/>
      </g>
     </g>
     <g id="text_3">
      <!-- 400 -->
      <defs>
       <path d="
M37.7969 64.3125
L12.8906 25.3906
L37.7969 25.3906
z

M35.2031 72.9062
L47.6094 72.9062
L47.6094 25.3906
L58.0156 25.3906
L58.0156 17.1875
L47.6094 17.1875
L47.6094 0
L37.7969 0
L37.7969 17.1875
L4.89062 17.1875
L4.89062 26.7031
z
" id="BitstreamVeraSans-Roman-34"/>
      </defs>
      <g transform="translate(214.179375 411.638125)scale(0.12 -0.12)">
       <use xlink:href="#BitstreamVeraSans-Roman-34"/>
       <use x="63.623046875" xlink:href="#BitstreamVeraSans-Roman-30"/>
       <use x="127.24609375" xlink:href="#BitstreamVeraSans-Roman-30"/>
      </g>
     </g>
    </g>
    <g id="xtick_4">
     <g id="line2d_8">
      <g>
       <use style="stroke:#000000;stroke-width:0.5;" x="300.735" xlink:href="#m93b0483c22" y="398.52"/>
      </g>
     </g>
     <g id="line2d_9">
      <g>
       <use style="stroke:#000000;stroke-width:0.5;" x="300.735" xlink:href="#m741efc42ff" y="44.28"/>
      </g>
     </g>
     <g id="text_4">
      <!-- 600 -->
      <defs>
       <path d="
M33.0156 40.375
Q26.375 40.375 22.4844 35.8281
Q18.6094 31.2969 18.6094 23.3906
Q18.6094 15.5312 22.4844 10.9531
Q26.375 6.39062 33.0156 6.39062
Q39.6562 6.39062 43.5312 10.9531
Q47.4062 15.5312 47.4062 23.3906
Q47.4062 31.2969 43.5312 35.8281
Q39.6562 40.375 33.0156 40.375
M52.5938 71.2969
L52.5938 62.3125
Q48.875 64.0625 45.0938 64.9844
Q41.3125 65.9219 37.5938 65.9219
Q27.8281 65.9219 22.6719 59.3281
Q17.5312 52.7344 16.7969 39.4062
Q19.6719 43.6562 24.0156 45.9219
Q28.375 48.1875 33.5938 48.1875
Q44.5781 48.1875 50.9531 41.5156
Q57.3281 34.8594 57.3281 23.3906
Q57.3281 12.1562 50.6875 5.35938
Q44.0469 -1.42188 33.0156 -1.42188
Q20.3594 -1.42188 13.6719 8.26562
Q6.98438 17.9688 6.98438 36.375
Q6.98438 53.6562 15.1875 63.9375
Q23.3906 74.2188 37.2031 74.2188
Q40.9219 74.2188 44.7031 73.4844
Q48.4844 72.75 52.5938 71.2969" id="BitstreamVeraSans-Roman-36"/>
      </defs>
      <g transform="translate(290.1 411.638125)scale(0.12 -0.12)">
       <use xlink:href="#BitstreamVeraSans-Roman-36"/>
       <use x="63.623046875" xlink:href="#BitstreamVeraSans-Roman-30"/>
       <use x="127.24609375" xlink:href="#BitstreamVeraSans-Roman-30"/>
      </g>
     </g>
    </g>
    <g id="xtick_5">
     <g id="line2d_10">
      <g>
       <use style="stroke:#000000;stroke-width:0.5;" x="376.53" xlink:href="#m93b0483c22" y="398.52"/>
      </g>
     </g>
     <g id="line2d_11">
      <g>
       <use style="stroke:#000000;stroke-width:0.5;" x="376.53" xlink:href="#m741efc42ff" y="44.28"/>
      </g>
     </g>
     <g id="text_5">
      <!-- 800 -->
      <defs>
       <path d="
M31.7812 34.625
Q24.75 34.625 20.7188 30.8594
Q16.7031 27.0938 16.7031 20.5156
Q16.7031 13.9219 20.7188 10.1562
Q24.75 6.39062 31.7812 6.39062
Q38.8125 6.39062 42.8594 10.1719
Q46.9219 13.9688 46.9219 20.5156
Q46.9219 27.0938 42.8906 30.8594
Q38.875 34.625 31.7812 34.625
M21.9219 38.8125
Q15.5781 40.375 12.0312 44.7188
Q8.5 49.0781 8.5 55.3281
Q8.5 64.0625 14.7188 69.1406
Q20.9531 74.2188 31.7812 74.2188
Q42.6719 74.2188 48.875 69.1406
Q55.0781 64.0625 55.0781 55.3281
Q55.0781 49.0781 51.5312 44.7188
Q48 40.375 41.7031 38.8125
Q48.8281 37.1562 52.7969 32.3125
Q56.7812 27.4844 56.7812 20.5156
Q56.7812 9.90625 50.3125 4.23438
Q43.8438 -1.42188 31.7812 -1.42188
Q19.7344 -1.42188 13.25 4.23438
Q6.78125 9.90625 6.78125 20.5156
Q6.78125 27.4844 10.7812 32.3125
Q14.7969 37.1562 21.9219 38.8125
M18.3125 54.3906
Q18.3125 48.7344 21.8438 45.5625
Q25.3906 42.3906 31.7812 42.3906
Q38.1406 42.3906 41.7188 45.5625
Q45.3125 48.7344 45.3125 54.3906
Q45.3125 60.0625 41.7188 63.2344
Q38.1406 66.4062 31.7812 66.4062
Q25.3906 66.4062 21.8438 63.2344
Q18.3125 60.0625 18.3125 54.3906" id="BitstreamVeraSans-Roman-38"/>
      </defs>
      <g transform="translate(365.8828125 411.638125)scale(0.12 -0.12)">
       <use xlink:href="#BitstreamVeraSans-Roman-38"/>
       <use x="63.623046875" xlink:href="#BitstreamVeraSans-Roman-30"/>
       <use x="127.24609375" xlink:href="#BitstreamVeraSans-Roman-30"/>
      </g>
     </g>
    </g>
    <g id="xtick_6">
     <g id="line2d_12">
      <g>
       <use style="stroke:#000000;stroke-width:0.5;" x="452.325" xlink:href="#m93b0483c22" y="398.52"/>
      </g>
     </g>
     <g id="line2d_13">
      <g>
       <use style="stroke:#000000;stroke-width:0.5;" x="452.325" xlink:href="#m741efc42ff" y="44.28"/>
      </g>
     </g>
     <g id="text_6">
      <!-- 1000 -->
      <defs>
       <path d="
M12.4062 8.29688
L28.5156 8.29688
L28.5156 63.9219
L10.9844 60.4062
L10.9844 69.3906
L28.4219 72.9062
L38.2812 72.9062
L38.2812 8.29688
L54.3906 8.29688
L54.3906 0
L12.4062 0
z
" id="BitstreamVeraSans-Roman-31"/>
      </defs>
      <g transform="translate(438.1125 411.638125)scale(0.12 -0.12)">
       <use xlink:href="#BitstreamVeraSans-Roman-31"/>
       <use x="63.623046875" xlink:href="#BitstreamVeraSans-Roman-30"/>
       <use x="127.24609375" xlink:href="#BitstreamVeraSans-Roman-30"/>
       <use x="190.869140625" xlink:href="#BitstreamVeraSans-Roman-30"/>
      </g>
     </g>
    </g>
    <g id="xtick_7">
     <g id="line2d_14">
      <g>
       <use style="stroke:#000000;stroke-width:0.5;" x="528.12" xlink:href="#m93b0483c22" y="398.52"/>
      </g>
     </g>
     <g id="line2d_15">
      <g>
       <use style="stroke:#000000;stroke-width:0.5;" x="528.12" xlink:href="#m741efc42ff" y="44.28"/>
      </g>
     </g>
     <g id="text_7">
      <!-- 1200 -->
      <g transform="translate(513.9075 411.638125)scale(0.12 -0.12)">
       <use xlink:href="#BitstreamVeraSans-Roman-31"/>
       <use x="63.623046875" xlink:href="#BitstreamVeraSans-Roman-32"/>
       <use x="127.24609375" xlink:href="#BitstreamVeraSans-Roman-30"/>
       <use x="190.869140625" xlink:href="#BitstreamVeraSans-Roman-30"/>
      </g>
     </g>
    </g>
   </g>
   <g id="matplotlib.axis_2">
    <g id="ytick_1">
     <g id="line2d_16">
      <defs>
       <path d="
M0 0
L4 0" id="m728421d6d4" style="stroke:#000000;stroke-width:0.5;"/>
      </defs>
      <g>
       <use style="stroke:#000000;stroke-width:0.5;" x="73.35" xlink:href="#m728421d6d4" y="398.52"/>
      </g>
     </g>
     <g id="line2d_17">
      <defs>
       <path d="
M0 0
L-4 0" id="mcb0005524f" style="stroke:#000000;stroke-width:0.5;"/>
      </defs>
      <g>
       <use style="stroke:#000000;stroke-width:0.5;" x="528.12" xlink:href="#mcb0005524f" y="398.52"/>
      </g>
     </g>
     <g id="text_8">
      <!-- 10 -->
      <g transform="translate(56.195 401.83125)scale(0.12 -0.12)">
       <use xlink:href="#BitstreamVeraSans-Roman-31"/>
       <use x="63.623046875" xlink:href="#BitstreamVeraSans-Roman-30"/>
      </g>
     </g>
    </g>
    <g id="ytick_2">
     <g id="line2d_18">
      <g>
       <use style="stroke:#000000;stroke-width:0.5;" x="73.35" xlink:href="#m728421d6d4" y="359.16"/>
      </g>
     </g>
     <g id="line2d_19">
      <g>
       <use style="stroke:#000000;stroke-width:0.5;" x="528.12" xlink:href="#mcb0005524f" y="359.16"/>
      </g>
     </g>
     <g id="text_9">
      <!-- 20 -->
      <g transform="translate(55.75625 362.47125)scale(0.12 -0.12)">
       <use xlink:href="#BitstreamVeraSans-Roman-32"/>
       <use x="63.623046875" xlink:href="#BitstreamVeraSans-Roman-30"/>
      </g>
     </g>
    </g>
    <g id="ytick_3">
     <g id="line2d_20">
      <g>
       <use style="stroke:#000000;stroke-width:0.5;" x="73.35" xlink:href="#m728421d6d4" y="319.8"/>
      </g>
     </g>
     <g id="line2d_21">
      <g>
       <use style="stroke:#000000;stroke-width:0.5;" x="528.12" xlink:href="#mcb0005524f" y="319.8"/>
      </g>
     </g>
     <g id="text_10">
      <!-- 30 -->
      <defs>
       <path d="
M40.5781 39.3125
Q47.6562 37.7969 51.625 33
Q55.6094 28.2188 55.6094 21.1875
Q55.6094 10.4062 48.1875 4.48438
Q40.7656 -1.42188 27.0938 -1.42188
Q22.5156 -1.42188 17.6562 -0.515625
Q12.7969 0.390625 7.625 2.20312
L7.625 11.7188
Q11.7188 9.32812 16.5938 8.10938
Q21.4844 6.89062 26.8125 6.89062
Q36.0781 6.89062 40.9375 10.5469
Q45.7969 14.2031 45.7969 21.1875
Q45.7969 27.6406 41.2812 31.2656
Q36.7656 34.9062 28.7188 34.9062
L20.2188 34.9062
L20.2188 43.0156
L29.1094 43.0156
Q36.375 43.0156 40.2344 45.9219
Q44.0938 48.8281 44.0938 54.2969
Q44.0938 59.9062 40.1094 62.9062
Q36.1406 65.9219 28.7188 65.9219
Q24.6562 65.9219 20.0156 65.0312
Q15.375 64.1562 9.8125 62.3125
L9.8125 71.0938
Q15.4375 72.6562 20.3438 73.4375
Q25.25 74.2188 29.5938 74.2188
Q40.8281 74.2188 47.3594 69.1094
Q53.9062 64.0156 53.9062 55.3281
Q53.9062 49.2656 50.4375 45.0938
Q46.9688 40.9219 40.5781 39.3125" id="BitstreamVeraSans-Roman-33"/>
      </defs>
      <g transform="translate(55.791875 323.11125)scale(0.12 -0.12)">
       <use xlink:href="#BitstreamVeraSans-Roman-33"/>
       <use x="63.623046875" xlink:href="#BitstreamVeraSans-Roman-30"/>
      </g>
     </g>
    </g>
    <g id="ytick_4">
     <g id="line2d_22">
      <g>
       <use style="stroke:#000000;stroke-width:0.5;" x="73.35" xlink:href="#m728421d6d4" y="280.44"/>
      </g>
     </g>
     <g id="line2d_23">
      <g>
       <use style="stroke:#000000;stroke-width:0.5;" x="528.12" xlink:href="#mcb0005524f" y="280.44"/>
      </g>
     </g>
     <g id="text_11">
      <!-- 40 -->
      <g transform="translate(55.46375 283.75125)scale(0.12 -0.12)">
       <use xlink:href="#BitstreamVeraSans-Roman-34"/>
       <use x="63.623046875" xlink:href="#BitstreamVeraSans-Roman-30"/>
      </g>
     </g>
    </g>
    <g id="ytick_5">
     <g id="line2d_24">
      <g>
       <use style="stroke:#000000;stroke-width:0.5;" x="73.35" xlink:href="#m728421d6d4" y="241.08"/>
      </g>
     </g>
     <g id="line2d_25">
      <g>
       <use style="stroke:#000000;stroke-width:0.5;" x="528.12" xlink:href="#mcb0005524f" y="241.08"/>
      </g>
     </g>
     <g id="text_12">
      <!-- 50 -->
      <defs>
       <path d="
M10.7969 72.9062
L49.5156 72.9062
L49.5156 64.5938
L19.8281 64.5938
L19.8281 46.7344
Q21.9688 47.4688 24.1094 47.8281
Q26.2656 48.1875 28.4219 48.1875
Q40.625 48.1875 47.75 41.5
Q54.8906 34.8125 54.8906 23.3906
Q54.8906 11.625 47.5625 5.09375
Q40.2344 -1.42188 26.9062 -1.42188
Q22.3125 -1.42188 17.5469 -0.640625
Q12.7969 0.140625 7.71875 1.70312
L7.71875 11.625
Q12.1094 9.23438 16.7969 8.0625
Q21.4844 6.89062 26.7031 6.89062
Q35.1562 6.89062 40.0781 11.3281
Q45.0156 15.7656 45.0156 23.3906
Q45.0156 31 40.0781 35.4375
Q35.1562 39.8906 26.7031 39.8906
Q22.75 39.8906 18.8125 39.0156
Q14.8906 38.1406 10.7969 36.2812
z
" id="BitstreamVeraSans-Roman-35"/>
      </defs>
      <g transform="translate(55.803125 244.39125)scale(0.12 -0.12)">
       <use xlink:href="#BitstreamVeraSans-Roman-35"/>
       <use x="63.623046875" xlink:href="#BitstreamVeraSans-Roman-30"/>
      </g>
     </g>
    </g>
    <g id="ytick_6">
     <g id="line2d_26">
      <g>
       <use style="stroke:#000000;stroke-width:0.5;" x="73.35" xlink:href="#m728421d6d4" y="201.72"/>
      </g>
     </g>
     <g id="line2d_27">
      <g>
       <use style="stroke:#000000;stroke-width:0.5;" x="528.12" xlink:href="#mcb0005524f" y="201.72"/>
      </g>
     </g>
     <g id="text_13">
      <!-- 60 -->
      <g transform="translate(55.715 205.03125)scale(0.12 -0.12)">
       <use xlink:href="#BitstreamVeraSans-Roman-36"/>
       <use x="63.623046875" xlink:href="#BitstreamVeraSans-Roman-30"/>
      </g>
     </g>
    </g>
    <g id="ytick_7">
     <g id="line2d_28">
      <g>
       <use style="stroke:#000000;stroke-width:0.5;" x="73.35" xlink:href="#m728421d6d4" y="162.36"/>
      </g>
     </g>
     <g id="line2d_29">
      <g>
       <use style="stroke:#000000;stroke-width:0.5;" x="528.12" xlink:href="#mcb0005524f" y="162.36"/>
      </g>
     </g>
     <g id="text_14">
      <!-- 70 -->
      <defs>
       <path d="
M8.20312 72.9062
L55.0781 72.9062
L55.0781 68.7031
L28.6094 0
L18.3125 0
L43.2188 64.5938
L8.20312 64.5938
z
" id="BitstreamVeraSans-Roman-37"/>
      </defs>
      <g transform="translate(55.86125 165.67125)scale(0.12 -0.12)">
       <use xlink:href="#BitstreamVeraSans-Roman-37"/>
       <use x="63.623046875" xlink:href="#BitstreamVeraSans-Roman-30"/>
      </g>
     </g>
    </g>
    <g id="ytick_8">
     <g id="line2d_30">
      <g>
       <use style="stroke:#000000;stroke-width:0.5;" x="73.35" xlink:href="#m728421d6d4" y="123.0"/>
      </g>
     </g>
     <g id="line2d_31">
      <g>
       <use style="stroke:#000000;stroke-width:0.5;" x="528.12" xlink:href="#mcb0005524f" y="123.0"/>
      </g>
     </g>
     <g id="text_15">
      <!-- 80 -->
      <g transform="translate(55.690625 126.31125)scale(0.12 -0.12)">
       <use xlink:href="#BitstreamVeraSans-Roman-38"/>
       <use x="63.623046875" xlink:href="#BitstreamVeraSans-Roman-30"/>
      </g>
     </g>
    </g>
    <g id="ytick_9">
     <g id="line2d_32">
      <g>
       <use style="stroke:#000000;stroke-width:0.5;" x="73.35" xlink:href="#m728421d6d4" y="83.64"/>
      </g>
     </g>
     <g id="line2d_33">
      <g>
       <use style="stroke:#000000;stroke-width:0.5;" x="528.12" xlink:href="#mcb0005524f" y="83.64"/>
      </g>
     </g>
     <g id="text_16">
      <!-- 90 -->
      <defs>
       <path d="
M10.9844 1.51562
L10.9844 10.5
Q14.7031 8.73438 18.5 7.8125
Q22.3125 6.89062 25.9844 6.89062
Q35.75 6.89062 40.8906 13.4531
Q46.0469 20.0156 46.7812 33.4062
Q43.9531 29.2031 39.5938 26.9531
Q35.25 24.7031 29.9844 24.7031
Q19.0469 24.7031 12.6719 31.3125
Q6.29688 37.9375 6.29688 49.4219
Q6.29688 60.6406 12.9375 67.4219
Q19.5781 74.2188 30.6094 74.2188
Q43.2656 74.2188 49.9219 64.5156
Q56.5938 54.8281 56.5938 36.375
Q56.5938 19.1406 48.4062 8.85938
Q40.2344 -1.42188 26.4219 -1.42188
Q22.7031 -1.42188 18.8906 -0.6875
Q15.0938 0.046875 10.9844 1.51562
M30.6094 32.4219
Q37.25 32.4219 41.125 36.9531
Q45.0156 41.5 45.0156 49.4219
Q45.0156 57.2812 41.125 61.8438
Q37.25 66.4062 30.6094 66.4062
Q23.9688 66.4062 20.0938 61.8438
Q16.2188 57.2812 16.2188 49.4219
Q16.2188 41.5 20.0938 36.9531
Q23.9688 32.4219 30.6094 32.4219" id="BitstreamVeraSans-Roman-39"/>
      </defs>
      <g transform="translate(55.6325 86.95125)scale(0.12 -0.12)">
       <use xlink:href="#BitstreamVeraSans-Roman-39"/>
       <use x="63.623046875" xlink:href="#BitstreamVeraSans-Roman-30"/>
      </g>
     </g>
    </g>
    <g id="ytick_10">
     <g id="line2d_34">
      <g>
       <use style="stroke:#000000;stroke-width:0.5;" x="73.35" xlink:href="#m728421d6d4" y="44.28"/>
      </g>
     </g>
     <g id="line2d_35">
      <g>
       <use style="stroke:#000000;stroke-width:0.5;" x="528.12" xlink:href="#mcb0005524f" y="44.28"/>
      </g>
     </g>
     <g id="text_17">
      <!-- 100 -->
      <g transform="translate(48.56 47.59125)scale(0.12 -0.12)">
       <use xlink:href="#BitstreamVeraSans-Roman-31"/>
       <use x="63.623046875" xlink:href="#BitstreamVeraSans-Roman-30"/>
       <use x="127.24609375" xlink:href="#BitstreamVeraSans-Roman-30"/>
      </g>
     </g>
    </g>
   </g>
   <g id="patch_3">
    <path d="
M73.35 44.28
L528.12 44.28" style="fill:none;stroke:#000000;"/>
   </g>
   <g id="patch_4">
    <path d="
M528.12 398.52
L528.12 44.28" style="fill:none;stroke:#000000;"/>
   </g>
   <g id="patch_5">
    <path d="
M73.35 398.52
L528.12 398.52" style="fill:none;stroke:#000000;"/>
   </g>
   <g id="patch_6">
    <path d="
M73.35 398.52
L73.35 44.28" style="fill:none;stroke:#000000;"/>
   </g>
  </g>
 </g>
 <defs>
  <clipPath id="p9061672a36">
   <rect height="354.24" width="454.77" x="73.35" y="44.28"/>
  </clipPath>
 </defs>
</svg>
